<svg width="273" height="273" viewBox="0 0 273 273" fill="none" xmlns="http://www.w3.org/2000/svg">
<path fill-rule="evenodd" clip-rule="evenodd" d="M238.875 250.25H261.625V273H11.375V250.25H34.125V0H238.875V250.25ZM125.125 216.125H102.375V261.625H125.125V216.125ZM170.625 216.125H147.875V261.625H170.625V216.125ZM216.125 22.75H56.875V250.25H79.625V193.375H193.375V250.25H216.125V22.75ZM79.625 147.875H102.375V170.625H79.625V147.875ZM125.125 147.875H147.875V170.625H125.125V147.875ZM170.625 147.875H193.375V170.625H170.625V147.875ZM79.625 113.75H102.375V136.5H79.625V113.75ZM125.125 113.75H147.875V136.5H125.125V113.75ZM170.625 113.75H193.375V136.5H170.625V113.75ZM79.625 79.625H102.375V102.375H79.625V79.625ZM125.125 79.625H147.875V102.375H125.125V79.625ZM170.625 79.625H193.375V102.375H170.625V79.625ZM79.625 45.5H102.375V68.25H79.625V45.5ZM125.125 45.5H147.875V68.25H125.125V45.5ZM170.625 45.5H193.375V68.25H170.625V45.5Z" fill="white"/>
</svg>
